<?xml version="1.0" standalone="no"?>
<!DOCTYPE svg PUBLIC "-//W3C//DTD SVG 20010904//EN"
 "http://www.w3.org/TR/2001/REC-SVG-20010904/DTD/svg10.dtd">
<svg version="1.0" xmlns="http://www.w3.org/2000/svg"
 width="1200.000000pt" height="600.000000pt" viewBox="0 0 1200.000000 600.000000"
 preserveAspectRatio="xMidYMid meet">

<g transform="translate(0.000000,600.000000) scale(0.100000,-0.100000)"
fill="#000000" stroke="none">
<path d="M1760 5334 c-178 -38 -348 -170 -429 -334 -94 -192 -94 -378 0 -570
82 -166 251 -297 434 -335 106 -22 8184 -22 8290 0 338 71 561 412 490 750
-50 239 -251 440 -490 490 -103 22 -8195 21 -8295 -1z"/>
<path d="M1760 3614 c-178 -38 -348 -170 -429 -334 -94 -192 -94 -378 0 -570
82 -166 251 -297 434 -335 106 -22 8184 -22 8290 0 338 71 561 412 490 750
-50 239 -251 440 -490 490 -103 22 -8195 21 -8295 -1z"/>
<path d="M1760 1894 c-178 -38 -348 -170 -429 -334 -94 -192 -94 -378 0 -570
82 -166 251 -297 434 -335 106 -22 8184 -22 8290 0 338 71 561 412 490 750
-50 239 -251 440 -490 490 -103 22 -8195 21 -8295 -1z"/>
</g>
</svg>
