<svg width="33" height="29" viewBox="0 0 33 29" fill="none" xmlns="http://www.w3.org/2000/svg">
<g id="filter">
<g id="combo shape">
<path fill-rule="evenodd" clip-rule="evenodd" d="M5.92692 9.18221L5.92692 1.375C5.92692 0.770938 5.43723 0.28125 4.83317 0.28125C4.22911 0.28125 3.73942 0.770938 3.73942 1.375L3.73942 9.18221C2.05614 9.65831 0.822754 11.206 0.822754 13.0417V15.9583C0.822754 17.7941 2.05614 19.3417 3.73942 19.8178V27.625C3.73942 28.2291 4.22911 28.7188 4.83317 28.7188C5.43723 28.7188 5.92692 28.2291 5.92692 27.625V19.8178C7.6102 19.3417 8.84359 17.7941 8.84359 15.9583V13.0417C8.84359 11.206 7.61021 9.65831 5.92692 9.18221ZM17.5936 3.34888V1.375C17.5936 0.770938 17.1039 0.28125 16.4998 0.28125C15.8958 0.28125 15.4061 0.770938 15.4061 1.375L15.4061 3.34888C13.7228 3.82497 12.4894 5.37262 12.4894 7.20833V10.125C12.4894 12.3399 14.2849 14.1354 16.4998 14.1354C18.7147 14.1354 20.5103 12.3399 20.5103 10.125V7.20833C20.5103 5.37262 19.2769 3.82497 17.5936 3.34888ZM16.4998 28.7188C15.8958 28.7188 15.4061 28.2291 15.4061 27.625L15.4061 17.4167C15.4061 16.8126 15.8958 16.3229 16.4998 16.3229C17.1039 16.3229 17.5936 16.8126 17.5936 17.4167V27.625C17.5936 28.2291 17.1039 28.7188 16.4998 28.7188ZM28.1665 12.6771C27.5624 12.6771 27.0728 12.1874 27.0728 11.5833V1.375C27.0728 0.770938 27.5624 0.28125 28.1665 0.28125C28.7706 0.28125 29.2603 0.770938 29.2603 1.375V11.5833C29.2603 12.1874 28.7706 12.6771 28.1665 12.6771ZM28.1665 14.8646C25.9516 14.8646 24.1561 16.6601 24.1561 18.875V21.7917C24.1561 23.6274 25.3895 25.175 27.0728 25.6511V27.625C27.0728 28.2291 27.5624 28.7188 28.1665 28.7188C28.7706 28.7188 29.2603 28.2291 29.2603 27.625V25.6511C30.9435 25.175 32.1769 23.6274 32.1769 21.7917V18.875C32.1769 16.6601 30.3814 14.8646 28.1665 14.8646Z" fill="white" style="mix-blend-mode:overlay"/>
</g>
</g>
</svg>
